<svg width="77" height="90" viewBox="0 0 85 110" fill="none" xmlns="http://www.w3.org/2000/svg">
<path d="M85 19.3721C85 8.69026 76.1376 0 65.2441 0C56.6176 0 49.2658 5.45023 46.5792 13.0233H7.4707C3.35136 13.0233 0 16.3095 0 20.3488V102.674C0 106.714 3.35136 110 7.4707 110H69.3945C73.5139 110 76.8652 106.714 76.8652 102.674V35.0278C81.7921 31.5016 85 25.7978 85 19.3721ZM65.2441 4.88372C73.3914 4.88372 80.0195 11.3831 80.0195 19.3721C80.0195 27.361 73.3914 33.8605 65.2441 33.8605C57.0969 33.8605 50.4688 27.361 50.4688 19.3721C50.4688 11.3831 57.0969 4.88372 65.2441 4.88372ZM71.8848 102.674C71.8848 104.021 70.7676 105.116 69.3945 105.116H7.4707C6.09759 105.116 4.98047 104.021 4.98047 102.674V20.3488C4.98047 19.0024 6.09759 17.907 7.4707 17.907H45.5446C45.5075 18.3908 45.4883 18.8793 45.4883 19.3721C45.4883 30.0539 54.3507 38.7442 65.2441 38.7442C67.573 38.7442 69.8084 38.3458 71.8848 37.617V102.674Z" fill="#C4C4C4"/>
<path d="M25.1191 87.8398C25.0215 88.7383 24.6992 89.4258 24.1523 89.9023C23.6094 90.3789 22.8848 90.6172 21.9785 90.6172C21.3457 90.6172 20.7852 90.459 20.2969 90.1426C19.8125 89.8262 19.4375 89.3789 19.1719 88.8008C18.9062 88.2188 18.7715 87.5547 18.7676 86.8086V85.7012C18.7676 84.9434 18.9004 84.2715 19.166 83.6855C19.4316 83.0996 19.8125 82.6484 20.3086 82.332C20.8086 82.0117 21.3828 81.8516 22.0312 81.8516C22.9453 81.8516 23.666 82.0996 24.1934 82.5957C24.7246 83.0879 25.0332 83.7695 25.1191 84.6406H24.3926C24.2129 83.1914 23.4258 82.4668 22.0312 82.4668C21.2578 82.4668 20.6406 82.7559 20.1797 83.334C19.7227 83.9121 19.4941 84.7109 19.4941 85.7305V86.7734C19.4941 87.7578 19.7168 88.543 20.1621 89.1289C20.6113 89.7148 21.2168 90.0078 21.9785 90.0078C22.7324 90.0078 23.3008 89.8281 23.6836 89.4688C24.0664 89.1055 24.3027 88.5625 24.3926 87.8398H25.1191ZM28.4297 87.5938H27.457V90.5H26.748V84.1602H27.457V86.9727H28.418L30.7441 84.1602H31.6289L29.0273 87.2363L31.916 90.5H30.9902L28.4297 87.5938ZM36.9316 90.5C36.8613 90.3008 36.8164 90.0059 36.7969 89.6152C36.5508 89.9355 36.2363 90.1836 35.8535 90.3594C35.4746 90.5312 35.0723 90.6172 34.6465 90.6172C34.0371 90.6172 33.543 90.4473 33.1641 90.1074C32.7891 89.7676 32.6016 89.3379 32.6016 88.8184C32.6016 88.2012 32.8574 87.7129 33.3691 87.3535C33.8848 86.9941 34.6016 86.8145 35.5195 86.8145H36.791V86.0938C36.791 85.6406 36.6504 85.2852 36.3691 85.0273C36.0918 84.7656 35.6855 84.6348 35.1504 84.6348C34.6621 84.6348 34.2578 84.7598 33.9375 85.0098C33.6172 85.2598 33.457 85.5605 33.457 85.9121L32.7539 85.9062C32.7539 85.4023 32.9883 84.9668 33.457 84.5996C33.9258 84.2285 34.502 84.043 35.1855 84.043C35.8926 84.043 36.4492 84.2207 36.8555 84.5762C37.2656 84.9277 37.4766 85.4199 37.4883 86.0527V89.0527C37.4883 89.666 37.5527 90.125 37.6816 90.4297V90.5H36.9316ZM34.7285 89.9961C35.1973 89.9961 35.6152 89.8828 35.9824 89.6562C36.3535 89.4297 36.623 89.127 36.791 88.748V87.3535H35.5371C34.8379 87.3613 34.291 87.4902 33.8965 87.7402C33.502 87.9863 33.3047 88.3262 33.3047 88.7598C33.3047 89.1152 33.4355 89.4102 33.6973 89.6445C33.9629 89.8789 34.3066 89.9961 34.7285 89.9961ZM43.875 90.5H43.1719V87.834C42.5938 88.0449 42.041 88.1504 41.5137 88.1504C40.6738 88.1504 40.0645 87.9668 39.6855 87.5996C39.3066 87.2285 39.1094 86.6523 39.0938 85.8711V84.1602H39.791V85.8359C39.7988 86.4414 39.9316 86.8789 40.1895 87.1484C40.4512 87.4141 40.8926 87.5469 41.5137 87.5469C42.0801 87.5312 42.6328 87.4297 43.1719 87.2422V84.1602H43.875V90.5ZM49.752 90.5C49.6816 90.3008 49.6367 90.0059 49.6172 89.6152C49.3711 89.9355 49.0566 90.1836 48.6738 90.3594C48.2949 90.5312 47.8926 90.6172 47.4668 90.6172C46.8574 90.6172 46.3633 90.4473 45.9844 90.1074C45.6094 89.7676 45.4219 89.3379 45.4219 88.8184C45.4219 88.2012 45.6777 87.7129 46.1895 87.3535C46.7051 86.9941 47.4219 86.8145 48.3398 86.8145H49.6113V86.0938C49.6113 85.6406 49.4707 85.2852 49.1895 85.0273C48.9121 84.7656 48.5059 84.6348 47.9707 84.6348C47.4824 84.6348 47.0781 84.7598 46.7578 85.0098C46.4375 85.2598 46.2773 85.5605 46.2773 85.9121L45.5742 85.9062C45.5742 85.4023 45.8086 84.9668 46.2773 84.5996C46.7461 84.2285 47.3223 84.043 48.0059 84.043C48.7129 84.043 49.2695 84.2207 49.6758 84.5762C50.0859 84.9277 50.2969 85.4199 50.3086 86.0527V89.0527C50.3086 89.666 50.373 90.125 50.502 90.4297V90.5H49.752ZM47.5488 89.9961C48.0176 89.9961 48.4355 89.8828 48.8027 89.6562C49.1738 89.4297 49.4434 89.127 49.6113 88.748V87.3535H48.3574C47.6582 87.3613 47.1113 87.4902 46.7168 87.7402C46.3223 87.9863 46.125 88.3262 46.125 88.7598C46.125 89.1152 46.2559 89.4102 46.5176 89.6445C46.7832 89.8789 47.127 89.9961 47.5488 89.9961ZM56.6426 84.7578H54.334V90.5H53.6309V84.7578H51.4102V84.1602H56.6426V84.7578ZM58.5703 86.4629H60.3984C60.8672 86.4629 61.2773 86.5488 61.6289 86.7207C61.9844 86.8887 62.252 87.123 62.4316 87.4238C62.6152 87.7246 62.707 88.0742 62.707 88.4727C62.707 89.0859 62.4961 89.5781 62.0742 89.9492C61.6562 90.3164 61.0898 90.5 60.375 90.5H57.873V84.1602H58.5703V86.4629ZM58.5703 87.0605V89.9082H60.3867C60.8906 89.9082 61.2852 89.7812 61.5703 89.5273C61.8594 89.2734 62.0039 88.9258 62.0039 88.4844C62.0039 88.0625 61.8633 87.7227 61.582 87.4648C61.3047 87.2031 60.9238 87.0684 60.4395 87.0605H58.5703Z" fill="#EC1630"/>
<path d="M18 91.6719H63.3047V92.2578H18V91.6719Z" fill="#EC1630"/>
<path d="M60.3605 24.3711C60.7363 25.1082 61.466 25.6096 62.3007 25.7047C62.3968 25.7154 62.4926 25.7209 62.5881 25.7209C63.322 25.7209 64.0248 25.4025 64.5009 24.8424L71.1415 17.0284C72.0219 15.9924 71.8791 14.4527 70.8226 13.5893C69.7663 12.726 68.1959 12.866 67.3154 13.902L63.1123 18.8477L62.1589 16.9779C61.5438 15.7717 60.0479 15.2825 58.8178 15.8859C57.5877 16.4889 57.0891 17.9558 57.7042 19.1619L60.3605 24.3711Z" fill="#C4C4C4"/>
<circle cx="65" cy="19" r="17" fill="#ED1631"/>
<path d="M60.4999 15.25H64.0356V8.57143C64.0356 7.704 64.7381 7 65.6071 7C66.4761 7 67.1785 7.704 67.1785 8.57143V15.25H70.7142C71.7655 15.25 72.2888 16.5229 71.5471 17.2614L66.4399 22.3686C66.2105 22.5996 65.9088 22.7143 65.6071 22.7143C65.3053 22.7143 65.0036 22.5996 64.7742 22.3686L59.6671 17.2614C58.9253 16.5229 59.4486 15.25 60.4999 15.25Z" fill="white"/>
<path d="M73.4642 28.9999H57.7499C56.8809 28.9999 56.1785 28.2959 56.1785 27.4284C56.1785 26.561 56.8809 25.857 57.7499 25.857H73.4642C74.3332 25.857 75.0356 26.561 75.0356 27.4284C75.0356 28.2959 74.3332 28.9999 73.4642 28.9999Z" fill="white"/>
<path d="M21 65H15.9858V46.6626L10 48.4239V44.5556L20.4621 41H21V65Z" fill="#EC1630"/>
<path d="M28.3182 22.5H22.6818C21.9036 22.5 21.2727 23.0713 21.2727 23.7761V33.9849C21.2727 34.6897 21.9036 35.261 22.6818 35.261H28.3182C29.8746 35.261 31.1364 34.1183 31.1364 32.7088V25.0522C31.1364 23.6427 29.8746 22.5 28.3182 22.5ZM28.3182 32.7088H24.0909V25.0522H28.3182V32.7088Z" fill="#EC1630"/>
<path d="M41 25.0522V22.5H33.9545C33.1763 22.5 32.5454 23.0713 32.5454 23.7761V35.261H35.3636V30.1566H41V27.6044H35.3636V25.0522H41Z" fill="#EC1630"/>
<path d="M17.0455 22.5H11.4091C10.6308 22.5 10 23.0713 10 23.7761V35.261H12.8182V31.4327H17.0455C18.6019 31.4327 19.8636 30.29 19.8636 28.8805V25.0522C19.8636 23.6427 18.6019 22.5 17.0455 22.5ZM17.0455 28.8805H12.8182V25.0522H17.0455V28.8805Z" fill="#EC1630"/>
</svg>
