<svg width="77" height="90" viewBox="0 0 85 110" fill="none" xmlns="http://www.w3.org/2000/svg">
<path d="M29.8 77H13.4744V73.7805L21.1792 65.6179C22.237 64.4688 23.0167 63.4661 23.5184 62.6098C24.031 61.7534 24.2872 60.9404 24.2872 60.1707C24.2872 59.1192 24.0201 58.2954 23.4857 57.6992C22.9513 57.0921 22.1879 56.7886 21.1955 56.7886C20.1268 56.7886 19.2816 57.1572 18.66 57.8943C18.0493 58.6206 17.7439 59.5799 17.7439 60.7724H13C13 59.3306 13.3435 58.0136 14.0306 56.8211C14.7285 55.6287 15.71 54.6965 16.9751 54.0244C18.2401 53.3415 19.6742 53 21.2773 53C23.7311 53 25.6341 53.5854 26.9864 54.7561C28.3496 55.9268 29.0312 57.5799 29.0312 59.7154C29.0312 60.8862 28.7258 62.0786 28.1151 63.2927C27.5044 64.5068 26.4574 65.9214 24.9743 67.5366L19.5597 73.2114H29.8V77Z" fill="#EC1630"/>
<path d="M85 19.3721C85 8.69026 76.1376 0 65.2441 0C56.6176 0 49.2658 5.45023 46.5792 13.0233H7.4707C3.35136 13.0233 0 16.3095 0 20.3488V102.674C0 106.714 3.35136 110 7.4707 110H69.3945C73.5139 110 76.8652 106.714 76.8652 102.674V35.0278C81.7921 31.5016 85 25.7978 85 19.3721ZM65.2441 4.88372C73.3914 4.88372 80.0195 11.3831 80.0195 19.3721C80.0195 27.361 73.3914 33.8605 65.2441 33.8605C57.0969 33.8605 50.4688 27.361 50.4688 19.3721C50.4688 11.3831 57.0969 4.88372 65.2441 4.88372ZM71.8848 102.674C71.8848 104.021 70.7676 105.116 69.3945 105.116H7.4707C6.09759 105.116 4.98047 104.021 4.98047 102.674V20.3488C4.98047 19.0024 6.09759 17.907 7.4707 17.907H45.5446C45.5075 18.3908 45.4883 18.8793 45.4883 19.3721C45.4883 30.0539 54.3507 38.7442 65.2441 38.7442C67.573 38.7442 69.8084 38.3458 71.8848 37.617V102.674Z" fill="#C4C4C4"/>
<path d="M60.3605 24.3711C60.7363 25.1082 61.466 25.6096 62.3007 25.7047C62.3968 25.7154 62.4926 25.7209 62.5881 25.7209C63.322 25.7209 64.0248 25.4025 64.5009 24.8424L71.1415 17.0284C72.0219 15.9924 71.8791 14.4527 70.8226 13.5893C69.7663 12.726 68.1959 12.866 67.3154 13.902L63.1123 18.8477L62.1589 16.9779C61.5438 15.7717 60.0479 15.2825 58.8178 15.8859C57.5877 16.4889 57.0891 17.9558 57.7042 19.1619L60.3605 24.3711Z" fill="#C4C4C4"/>
<circle cx="65" cy="19" r="17" fill="#ED1631"/>
<path d="M67.2831 16.7358V16.9858H67.5331H72.75V20.8481H67.5331H67.2831V21.0981V26.75H62.733V21.0981V20.8481H62.483H57.25V16.9858H62.483H62.733V16.7358V11.25H67.2831V16.7358Z" fill="white" stroke="#ED1631" stroke-width="0.5"/>
<ellipse cx="65.3687" cy="19.6296" rx="16.6187" ry="16.21" fill="#ED1631"/>
<path d="M74.634 10.1914C73.7523 9.30978 72.601 8.86525 71.4412 8.84098C70.2207 8.81428 68.9929 9.25631 68.0699 10.1805L59.848 18.4024C58.6481 19.6072 57.9874 21.2054 57.9874 22.9031L57.9874 25.6235C57.9874 26.2951 58.5303 26.8379 59.2019 26.8379L61.9222 26.8379C63.62 26.8379 65.2183 26.1773 66.4242 24.9762L74.6351 16.7652C76.4447 14.9546 76.4447 12.0034 74.634 10.1914ZM64.7083 23.2578C63.9638 23.9999 62.9728 24.4091 61.9223 24.4091L60.4163 24.4091L60.4163 22.9032C60.4163 21.8527 60.8256 20.8617 61.5664 20.1184L66.9865 14.6983L70.1271 17.8389L64.7083 23.2578ZM72.9168 15.0493L71.8444 16.1217L68.7038 12.9811L69.7761 11.9088C70.6433 11.0416 72.052 11.0441 72.9167 11.9088C73.7815 12.7746 73.7815 14.1834 72.9168 15.0493Z" fill="white" stroke="#EC1630" stroke-width="0.5"/>
<path d="M44.8935 74.9163C43.8335 76.2541 42.1136 76.2541 41.0541 74.9163L35.1055 67.4082C34.0456 66.0709 34.0456 63.9001 35.1055 62.5629C36.165 61.225 37.8849 61.225 38.9449 62.5629L42.4891 67.0356C42.7567 67.3727 43.191 67.3727 43.459 67.0356L53.0557 54.9231C54.1152 53.5852 55.8351 53.5852 56.8951 54.9231C57.4041 55.5655 57.69 56.4372 57.69 57.3457C57.69 58.2542 57.4041 59.1259 56.8951 59.7684L44.8935 74.9163Z" fill="#EC1630"/>
</svg>
