<svg width="77" height="90" viewBox="0 0 86 111" fill="none" xmlns="http://www.w3.org/2000/svg">
<path d="M85.25 19.9524C85.25 9.27058 76.3876 0.580322 65.4941 0.580322C56.8676 0.580322 49.5158 6.03056 46.8292 13.6036H7.7207C3.60136 13.6036 0.25 16.8898 0.25 20.9292V103.255C0.25 107.294 3.60136 110.58 7.7207 110.58H69.6445C73.7639 110.58 77.1152 107.294 77.1152 103.255V35.6082C82.0421 32.0819 85.25 26.3781 85.25 19.9524ZM65.4941 5.46404C73.6414 5.46404 80.2695 11.9635 80.2695 19.9524C80.2695 27.9414 73.6414 34.4408 65.4941 34.4408C57.3469 34.4408 50.7188 27.9414 50.7188 19.9524C50.7188 11.9635 57.3469 5.46404 65.4941 5.46404ZM72.1348 103.255C72.1348 104.601 71.0176 105.697 69.6445 105.697H7.7207C6.34759 105.697 5.23047 104.601 5.23047 103.255V20.9292C5.23047 19.5827 6.34759 18.4873 7.7207 18.4873H45.7946C45.7575 18.9711 45.7383 19.4596 45.7383 19.9524C45.7383 30.6343 54.6007 39.3245 65.4941 39.3245C67.823 39.3245 70.0584 38.9262 72.1348 38.1973V103.255Z" fill="#C4C4C4"/>
<path d="M60.6104 24.9514C60.9863 25.6885 61.7159 26.1899 62.5507 26.285C62.6468 26.2957 62.7426 26.3013 62.838 26.3013C63.572 26.3013 64.2747 25.9828 64.7509 25.4227L71.3915 17.6087C72.2719 16.5727 72.1291 15.033 71.0726 14.1696C70.0162 13.3063 68.4459 13.4463 67.5653 14.4823L63.3623 19.4281L62.4089 17.5583C61.7938 16.352 60.2978 15.8628 59.0678 16.4663C57.8376 17.0692 57.3391 18.5361 57.9542 19.7423L60.6104 24.9514Z" fill="#C4C4C4"/>
<circle cx="65.25" cy="19.5803" r="17" fill="#ED1631"/>
<path d="M67.5331 17.3162V17.5662H67.7831H73V21.4284H67.7831H67.5331V21.6784V27.3303H62.983V21.6784V21.4284H62.733H57.5V17.5662H62.733H62.983V17.3162V11.8303H67.5331V17.3162Z" fill="white" stroke="#ED1631" stroke-width="0.5"/>
<ellipse cx="65.6187" cy="20.21" rx="16.6187" ry="16.21" fill="#ED1631"/>
<path d="M74.884 10.7718C74.0023 9.89009 72.851 9.44557 71.6912 9.4213C70.4707 9.39459 69.2429 9.83663 68.3199 10.7608L60.098 18.9827C58.8981 20.1875 58.2374 21.7857 58.2374 23.4835L58.2374 26.2038C58.2374 26.8754 58.7803 27.4183 59.4519 27.4183L62.1722 27.4183C63.87 27.4183 65.4683 26.7576 66.6742 25.5565L74.8851 17.3455C76.6947 15.5349 76.6947 12.5837 74.884 10.7718ZM64.9583 23.8381C64.2138 24.5802 63.2228 24.9894 62.1723 24.9894L60.6663 24.9894L60.6663 23.4835C60.6663 22.433 61.0756 21.442 61.8164 20.6987L67.2365 15.2786L70.3771 18.4192L64.9583 23.8381ZM73.1668 15.6296L72.0944 16.702L68.9538 13.5614L70.0261 12.4891C70.8933 11.6219 72.302 11.6244 73.1667 12.4891C74.0314 13.3549 74.0314 14.7637 73.1668 15.6296Z" fill="white" stroke="#EC1630" stroke-width="0.5"/>
<path d="M28 78H22.9858V59.6626L17 61.4239V57.5556L27.4621 54H28V78Z" fill="#EC1630"/>
<path d="M45.1435 75.4966C44.0835 76.8345 42.3636 76.8345 41.3041 75.4966L35.3555 67.9885C34.2956 66.6513 34.2956 64.4805 35.3555 63.1432C36.415 61.8054 38.1349 61.8054 39.1949 63.1432L42.7391 67.6159C43.0067 67.953 43.441 67.953 43.709 67.6159L53.3057 55.5034C54.3652 54.1655 56.0851 54.1655 57.1451 55.5034C57.6541 56.1459 57.94 57.0176 57.94 57.926C57.94 58.8345 57.6541 59.7062 57.1451 60.3487L45.1435 75.4966Z" fill="#EC1630"/>
</svg>
