<svg width="77" height="90" viewBox="0 0 86 111" fill="none" xmlns="http://www.w3.org/2000/svg">
<path d="M41.6549 79H37.7097V60.6626L33 62.4239V58.5556L41.2317 55H41.6549V79Z" fill="#EC1630"/>
<path d="M85.75 19.7918C85.75 9.10993 76.8876 0.419678 65.9941 0.419678C57.3676 0.419678 50.0158 5.86991 47.3292 13.4429H8.2207C4.10136 13.4429 0.75 16.7292 0.75 20.7685V103.094C0.75 107.133 4.10136 110.42 8.2207 110.42H70.1445C74.2639 110.42 77.6152 107.133 77.6152 103.094V35.4475C82.5421 31.9213 85.75 26.2174 85.75 19.7918ZM65.9941 5.3034C74.1414 5.3034 80.7695 11.8028 80.7695 19.7918C80.7695 27.7807 74.1414 34.2801 65.9941 34.2801C57.8469 34.2801 51.2188 27.7807 51.2188 19.7918C51.2188 11.8028 57.8469 5.3034 65.9941 5.3034ZM72.6348 103.094C72.6348 104.441 71.5176 105.536 70.1445 105.536H8.2207C6.84759 105.536 5.73047 104.441 5.73047 103.094V20.7685C5.73047 19.4221 6.84759 18.3267 8.2207 18.3267H46.2946C46.2575 18.8105 46.2383 19.299 46.2383 19.7918C46.2383 30.4736 55.1007 39.1639 65.9941 39.1639C68.323 39.1639 70.5584 38.7655 72.6348 38.0367V103.094Z" fill="#C4C4C4"/>
<path d="M61.1104 24.7908C61.4863 25.5279 62.2159 26.0293 63.0507 26.1243C63.1468 26.1351 63.2426 26.1406 63.338 26.1406C64.072 26.1406 64.7747 25.8222 65.2509 25.262L71.8915 17.4481C72.7719 16.4121 72.6291 14.8724 71.5726 14.009C70.5162 13.1457 68.9459 13.2857 68.0653 14.3217L63.8623 19.2674L62.9089 17.3976C62.2938 16.1913 60.7978 15.7021 59.5678 16.3056C58.3376 16.9086 57.8391 18.3755 58.4542 19.5816L61.1104 24.7908Z" fill="#C4C4C4"/>
<circle cx="65.75" cy="19.4197" r="17" fill="#ED1631"/>
<path d="M68.0331 17.1555V17.4055H68.2831H73.5V21.2678H68.2831H68.0331V21.5178V27.1697H63.483V21.5178V21.2678H63.233H58V17.4055H63.233H63.483V17.1555V11.6697H68.0331V17.1555Z" fill="white" stroke="#ED1631" stroke-width="0.5"/>
</svg>
