<svg width="77" height="90" viewBox="0 0 86 111" fill="none" xmlns="http://www.w3.org/2000/svg">
<path d="M85.75 19.9524C85.75 9.27058 76.8876 0.580322 65.9941 0.580322C57.3676 0.580322 50.0158 6.03056 47.3292 13.6036H8.2207C4.10136 13.6036 0.75 16.8898 0.75 20.9292V103.255C0.75 107.294 4.10136 110.58 8.2207 110.58H70.1445C74.2639 110.58 77.6152 107.294 77.6152 103.255V35.6082C82.5421 32.0819 85.75 26.3781 85.75 19.9524ZM65.9941 5.46404C74.1414 5.46404 80.7695 11.9635 80.7695 19.9524C80.7695 27.9414 74.1414 34.4408 65.9941 34.4408C57.8469 34.4408 51.2188 27.9414 51.2188 19.9524C51.2188 11.9635 57.8469 5.46404 65.9941 5.46404ZM72.6348 103.255C72.6348 104.601 71.5176 105.697 70.1445 105.697H8.2207C6.84759 105.697 5.73047 104.601 5.73047 103.255V20.9292C5.73047 19.5827 6.84759 18.4873 8.2207 18.4873H46.2946C46.2575 18.9711 46.2383 19.4596 46.2383 19.9524C46.2383 30.6343 55.1007 39.3245 65.9941 39.3245C68.323 39.3245 70.5584 38.9262 72.6348 38.1973V103.255Z" fill="#C4C4C4"/>
<path d="M61.1104 24.9514C61.4863 25.6885 62.2159 26.1899 63.0507 26.285C63.1468 26.2957 63.2426 26.3013 63.338 26.3013C64.072 26.3013 64.7747 25.9828 65.2509 25.4227L71.8915 17.6087C72.7719 16.5727 72.6291 15.033 71.5726 14.1696C70.5162 13.3063 68.9459 13.4463 68.0653 14.4823L63.8623 19.4281L62.9089 17.5583C62.2938 16.352 60.7978 15.8628 59.5678 16.4663C58.3376 17.0692 57.8391 18.5361 58.4542 19.7423L61.1104 24.9514Z" fill="#C4C4C4"/>
<circle cx="65.75" cy="19.5803" r="17" fill="#ED1631"/>
<path d="M68.0331 17.3162V17.5662H68.2831H73.5V21.4284H68.2831H68.0331V21.6784V27.3303H63.483V21.6784V21.4284H63.233H58V17.5662H63.233H63.483V17.3162V11.8303H68.0331V17.3162Z" fill="white" stroke="#ED1631" stroke-width="0.5"/>
<path d="M46.8 77H30.4744V73.7805L38.1792 65.6179C39.237 64.4688 40.0167 63.4661 40.5184 62.6098C41.031 61.7534 41.2872 60.9404 41.2872 60.1707C41.2872 59.1192 41.0201 58.2954 40.4857 57.6992C39.9513 57.0921 39.1879 56.7886 38.1955 56.7886C37.1268 56.7886 36.2816 57.1572 35.66 57.8943C35.0493 58.6206 34.7439 59.5799 34.7439 60.7724H30C30 59.3306 30.3435 58.0136 31.0306 56.8211C31.7285 55.6287 32.71 54.6965 33.9751 54.0244C35.2401 53.3415 36.6742 53 38.2773 53C40.7311 53 42.6341 53.5854 43.9864 54.7561C45.3496 55.9268 46.0312 57.5799 46.0312 59.7154C46.0312 60.8862 45.7258 62.0786 45.1151 63.2927C44.5044 64.5068 43.4574 65.9214 41.9743 67.5366L36.5597 73.2114H46.8V77Z" fill="#EC1630"/>
</svg>
